<svg width="1400" height="520" viewBox="0 0 1400 520" fill="none" xmlns="http://www.w3.org/2000/svg">
<rect width="1400" height="520" rx="28" fill="#071426"/><text x="700" y="72" text-anchor="middle" font-family="Inter, Arial" font-size="40" font-weight="800" fill="#EAF7FF">JAI Lab Research Ecosystem</text>
<g font-family="Inter, Arial" font-size="22" font-weight="700"><rect x="75" y="180" width="210" height="110" rx="22" fill="#0B2545" stroke="#00D4FF"/><text x="180" y="230" text-anchor="middle" fill="#EAF7FF">Experiments</text><text x="180" y="260" text-anchor="middle" font-size="15" fill="#8FB6C9">chemistry + sensing</text><rect x="325" y="180" width="210" height="110" rx="22" fill="#0B2545" stroke="#00D4FF"/><text x="430" y="230" text-anchor="middle" fill="#EAF7FF">Datasets</text><text x="430" y="260" text-anchor="middle" font-size="15" fill="#8FB6C9">standardized records</text><rect x="575" y="180" width="210" height="110" rx="22" fill="#0B2545" stroke="#00D4FF"/><text x="680" y="230" text-anchor="middle" fill="#EAF7FF">Benchmarks</text><text x="680" y="260" text-anchor="middle" font-size="15" fill="#8FB6C9">measurable progress</text><rect x="825" y="180" width="210" height="110" rx="22" fill="#0B2545" stroke="#00D4FF"/><text x="930" y="230" text-anchor="middle" fill="#EAF7FF">AI Models</text><text x="930" y="260" text-anchor="middle" font-size="15" fill="#8FB6C9">prediction + design</text><rect x="1075" y="180" width="250" height="110" rx="22" fill="#0B2545" stroke="#00D4FF"/><text x="1200" y="230" text-anchor="middle" fill="#EAF7FF">Software</text><text x="1200" y="260" text-anchor="middle" font-size="15" fill="#8FB6C9">reproducible tools</text></g>
<g stroke="#00D4FF" stroke-width="4" stroke-linecap="round"><path d="M285 235H325"/><path d="M535 235H575"/><path d="M785 235H825"/><path d="M1035 235H1075"/></g>
<g font-family="Inter, Arial" font-size="18" fill="#B8D7EA"><text x="180" y="395" text-anchor="middle">DyeMind</text><text x="430" y="395" text-anchor="middle">SensorGenome</text><text x="680" y="395" text-anchor="middle">Molecular Discovery Suite</text><text x="930" y="395" text-anchor="middle">AZAI</text><text x="1200" y="395" text-anchor="middle">NarcoticSense AI</text></g>
</svg>
