<svg width="1600" height="520" viewBox="0 0 1600 520" xmlns="http://www.w3.org/2000/svg">
<rect width="1600" height="520" rx="28" fill="#07111F"/>
<text x="800" y="70" text-anchor="middle" fill="#EAF2FF" font-family="Arial" font-size="44" font-weight="700">JAI Lab Research Stack</text>
<g font-family="Arial" font-size="28" font-weight="700">
<rect x="140" y="130" width="280" height="90" rx="18" fill="#0D1B2A" stroke="#00D4FF"/>
<text x="280" y="185" text-anchor="middle" fill="#EAF2FF">Experiments</text>
<rect x="480" y="130" width="280" height="90" rx="18" fill="#0D1B2A" stroke="#00D4FF"/>
<text x="620" y="185" text-anchor="middle" fill="#EAF2FF">Datasets</text>
<rect x="820" y="130" width="280" height="90" rx="18" fill="#0D1B2A" stroke="#00D4FF"/>
<text x="960" y="185" text-anchor="middle" fill="#EAF2FF">Benchmarks</text>
<rect x="1160" y="130" width="280" height="90" rx="18" fill="#0D1B2A" stroke="#00D4FF"/>
<text x="1300" y="185" text-anchor="middle" fill="#EAF2FF">AI Models</text>
<rect x="310" y="310" width="300" height="90" rx="18" fill="#0D1B2A" stroke="#7C3AED"/>
<text x="460" y="365" text-anchor="middle" fill="#EAF2FF">Sensors</text>
<rect x="650" y="310" width="300" height="90" rx="18" fill="#0D1B2A" stroke="#7C3AED"/>
<text x="800" y="365" text-anchor="middle" fill="#EAF2FF">Drug Discovery</text>
<rect x="990" y="310" width="300" height="90" rx="18" fill="#0D1B2A" stroke="#7C3AED"/>
<text x="1140" y="365" text-anchor="middle" fill="#EAF2FF">Open Science</text>
</g>
<path d="M420 175 H480 M760 175 H820 M1100 175 H1160" stroke="#9FB4CC" stroke-width="4"/>
<path d="M800 220 V310" stroke="#9FB4CC" stroke-width="4"/>
</svg>