<svg width="1600" height="720" viewBox="0 0 1600 720" fill="none" xmlns="http://www.w3.org/2000/svg" role="img" aria-label="JAI Lab ecosystem">
  <rect width="1600" height="720" rx="36" fill="#050816"/>
  <text x="800" y="82" text-anchor="middle" fill="#FFFFFF" font-family="Inter,Segoe UI,Arial,sans-serif" font-size="48" font-weight="800">JAI Lab Research Ecosystem</text>
  <text x="800" y="126" text-anchor="middle" fill="#94A3B8" font-family="Inter,Segoe UI,Arial,sans-serif" font-size="22">From experimental chemistry to datasets, benchmarks, models, and validated tools</text>
  <g font-family="Inter,Segoe UI,Arial,sans-serif">
    <rect x="640" y="255" width="320" height="150" rx="28" fill="#071B2F" stroke="#00D4FF" stroke-width="3"/>
    <text x="800" y="318" text-anchor="middle" fill="#FFFFFF" font-size="36" font-weight="800">JAI Lab</text>
    <text x="800" y="360" text-anchor="middle" fill="#BAE6FD" font-size="20">Open molecular discovery infrastructure</text>
    <g fill="#071B2F" stroke-width="2.5">
      <rect x="95" y="185" width="330" height="112" rx="24" stroke="#00D4FF"/>
      <rect x="95" y="423" width="330" height="112" rx="24" stroke="#F472B6"/>
      <rect x="635" y="515" width="330" height="112" rx="24" stroke="#10B981"/>
      <rect x="1175" y="185" width="330" height="112" rx="24" stroke="#F59E0B"/>
      <rect x="1175" y="423" width="330" height="112" rx="24" stroke="#A78BFA"/>
      <rect x="635" y="150" width="330" height="86" rx="24" stroke="#60A5FA"/>
    </g>
    <g font-size="24" font-weight="800" fill="#FFFFFF">
      <text x="260" y="236" text-anchor="middle">SensorGenome</text>
      <text x="260" y="474" text-anchor="middle">DyeMind</text>
      <text x="800" y="566" text-anchor="middle">Molecular Discovery Suite</text>
      <text x="1340" y="236" text-anchor="middle">AZAI</text>
      <text x="1340" y="474" text-anchor="middle">NarcoticSense AI</text>
      <text x="800" y="202" text-anchor="middle">Open Science Tools</text>
    </g>
    <g font-size="17" fill="#CBD5E1">
      <text x="260" y="266" text-anchor="middle">molecular sensing benchmarks</text>
      <text x="260" y="504" text-anchor="middle">fluorescent probe AI</text>
      <text x="800" y="596" text-anchor="middle">QSAR · docking · SAR · ADMET</text>
      <text x="1340" y="266" text-anchor="middle">xylazine analytics</text>
      <text x="1340" y="504" text-anchor="middle">spectroscopy + chemometrics</text>
      <text x="800" y="225" text-anchor="middle">schemas · templates · documentation</text>
    </g>
    <g stroke="#334155" stroke-width="3">
      <path d="M640 310H425"/>
      <path d="M640 360H425"/>
      <path d="M800 405V515"/>
      <path d="M960 310H1175"/>
      <path d="M960 360H1175"/>
      <path d="M800 255V236"/>
    </g>
  </g>
</svg>
