<svg width="1600" height="860" viewBox="0 0 1600 860" xmlns="http://www.w3.org/2000/svg">
<rect width="1600" height="860" rx="34" fill="#07111F"/>
<text x="800" y="80" text-anchor="middle" fill="#EAF2FF" font-family="Inter, Arial" font-size="52" font-weight="800">JAI Lab Research Ecosystem</text>
<text x="800" y="124" text-anchor="middle" fill="#9FB4CC" font-family="Inter, Arial" font-size="24">Open infrastructure connecting experiments, datasets, benchmarks, models, and translation</text>
<g font-family="Inter, Arial" font-size="26" font-weight="700">
<rect x="620" y="180" width="360" height="96" rx="22" fill="#0D1B2A" stroke="#00D4FF" stroke-width="3"/>
<text x="800" y="240" text-anchor="middle" fill="#EAF2FF">JAI Lab</text>

<rect x="120" y="390" width="330" height="100" rx="22" fill="#0D1B2A" stroke="#00D4FF" stroke-width="3"/>
<text x="285" y="431" text-anchor="middle" fill="#EAF2FF">Infrastructure</text>
<text x="285" y="462" text-anchor="middle" fill="#9FB4CC" font-size="18" font-weight="500">SensorGenome · BimaneDB</text>

<rect x="635" y="390" width="330" height="100" rx="22" fill="#0D1B2A" stroke="#7C3AED" stroke-width="3"/>
<text x="800" y="431" text-anchor="middle" fill="#EAF2FF">Molecular AI</text>
<text x="800" y="462" text-anchor="middle" fill="#9FB4CC" font-size="18" font-weight="500">DyeMind · Benchmarks</text>

<rect x="1150" y="390" width="330" height="100" rx="22" fill="#0D1B2A" stroke="#0B6EFD" stroke-width="3"/>
<text x="1315" y="431" text-anchor="middle" fill="#EAF2FF">Translation</text>
<text x="1315" y="462" text-anchor="middle" fill="#9FB4CC" font-size="18" font-weight="500">Drug Discovery · QSAR</text>

<rect x="110" y="620" width="310" height="90" rx="20" fill="#111827" stroke="#1F6FEB"/>
<text x="265" y="674" text-anchor="middle" fill="#EAF2FF">SensorGenome</text>
<rect x="460" y="620" width="310" height="90" rx="20" fill="#111827" stroke="#1F6FEB"/>
<text x="615" y="674" text-anchor="middle" fill="#EAF2FF">AZAI</text>
<rect x="810" y="620" width="310" height="90" rx="20" fill="#111827" stroke="#1F6FEB"/>
<text x="965" y="674" text-anchor="middle" fill="#EAF2FF">NarcoticSense AI</text>
<rect x="1160" y="620" width="310" height="90" rx="20" fill="#111827" stroke="#1F6FEB"/>
<text x="1315" y="674" text-anchor="middle" fill="#EAF2FF">Pendrin · CFTR</text>
</g>
<path d="M800 276 V335 M800 335 H285 V390 M800 335 V390 M800 335 H1315 V390" stroke="#9FB4CC" stroke-width="4"/>
<path d="M285 490 V560 H265 V620 M285 560 H615 V620 M800 490 V560 H965 V620 M1315 490 V620" stroke="#9FB4CC" stroke-width="4"/>
</svg>